<?xml version="1.0" encoding="iso-8859-1"?>
<!-- Generator: Adobe Illustrator 16.0.0, SVG Export Plug-In . SVG Version: 6.00 Build 0)  -->
<!DOCTYPE svg PUBLIC "-//W3C//DTD SVG 1.1//EN" "http://www.w3.org/Graphics/SVG/1.1/DTD/svg11.dtd">
<svg fill="#f2f2f2" version="1.1" id="Capa_1" xmlns="http://www.w3.org/2000/svg" xmlns:xlink="http://www.w3.org/1999/xlink" x="0px" y="0px"
	 width="325.023px" height="325.023px" viewBox="0 0 325.023 325.023" style="enable-background:new 0 0 325.023 325.023;"
	 xml:space="preserve">
<g>
	<path d="M285.395,69.672c-0.992-1.304-2.539-2.067-4.175-2.067h-54.316c-2.906,0-5.257,2.354-5.257,5.256v28.763h-26.282V72.861
		c0-2.902-2.351-5.256-5.256-5.256h-56.945c-2.905,0-5.256,2.354-5.256,5.256v28.763H99.873V72.899c0-2.9-2.351-5.256-5.256-5.256
		H42.928c-1.738,0-3.361,0.859-4.343,2.293L0.914,125.092C0.318,125.965,0,127,0,128.058v36.206c0,2.902,2.351,5.257,5.256,5.257
		h54.317c2.835,0,5.16-2.252,5.253-5.086l0.71-21.635h39.593v21.464c0,2.902,2.351,5.257,5.256,5.257h106.881
		c2.905,0,5.256-2.354,5.256-5.257V142.8h38.715l0.712,21.635c0.093,2.841,2.42,5.086,5.253,5.086h52.564
		c2.905,0,5.257-2.354,5.257-5.257v-40.881c0-1.153-0.377-2.271-1.082-3.189L285.395,69.672z M314.511,159.007h-42.223
		l-0.712-21.635c-0.093-2.839-2.416-5.085-5.253-5.085h-49.061c-2.905,0-5.256,2.354-5.256,5.256v21.464h-96.369v-21.464
		c0-2.902-2.353-5.256-5.256-5.256H60.446c-2.835,0-5.163,2.25-5.253,5.085l-0.712,21.635H10.513V129.68l35.19-51.524h43.656v28.726
		c0,2.902,2.351,5.257,5.257,5.257h38.547c2.905,0,5.256-2.354,5.256-5.257V78.118h46.432v28.763c0,2.902,2.351,5.257,5.257,5.257
		h36.795c2.905,0,5.256-2.354,5.256-5.257V78.118h46.456l35.892,47.041v33.849H314.511z"/>
	<path d="M319.767,178.281h-53.44c-2.905,0-5.257,2.354-5.257,5.256v12.266h-43.803v-12.266c0-2.901-2.352-5.256-5.257-5.256
		H108.633c-2.906,0-5.256,2.354-5.256,5.256v12.266H63.954v-12.266c0-2.901-2.351-5.256-5.257-5.256H5.256
		c-2.905,0-5.256,2.354-5.256,5.256v99.873c0,2.901,2.351,5.256,5.256,5.256h314.51c2.905,0,5.257-2.354,5.257-5.256v-99.873
		C325.023,180.636,322.669,178.281,319.767,178.281z M314.511,278.153H10.513v-89.359H53.44v12.265c0,2.902,2.351,5.257,5.256,5.257
		h49.937c2.905,0,5.256-2.354,5.256-5.257v-12.265h92.863v12.265c0,2.902,2.352,5.257,5.257,5.257h54.316
		c2.905,0,5.257-2.354,5.257-5.257v-12.265h42.928V278.153z"/>
	<path d="M95.492,188.794c2.905,0,5.256-2.354,5.256-5.257v-29.579c0-2.902-2.351-5.256-5.256-5.256H71.838
		c-2.905,0-5.256,2.354-5.256,5.256v29.579c0,2.902,2.351,5.257,5.256,5.257H95.492z M77.095,159.214h13.141v19.067H77.095V159.214z
		"/>
	<path d="M254.499,188.794c2.905,0,5.257-2.354,5.257-5.257v-29.579c0-2.902-2.352-5.256-5.257-5.256h-23.653
		c-2.905,0-5.257,2.354-5.257,5.256v29.579c0,2.902,2.352,5.257,5.257,5.257H254.499z M236.102,159.214h13.142v19.067h-13.142
		V159.214z"/>
	<path d="M211.134,97.388c2.905,0,5.256-2.354,5.256-5.256V65.268c0-0.13-0.003-0.26-0.014-0.385
		c-0.089-1.167-2.703-28.525-53.864-28.525c-51.163,0-53.778,27.358-53.865,28.525c-0.007,0.125-0.014,0.255-0.014,0.385v26.864
		c0,2.902,2.351,5.256,5.256,5.256s5.256-2.354,5.256-5.256V65.559c0.245-1.475,4.072-18.688,43.366-18.688
		c39.532,0,43.116,17.073,43.365,18.682v26.58C205.877,95.034,208.229,97.388,211.134,97.388z"/>
</g>
<g>
</g>
<g>
</g>
<g>
</g>
<g>
</g>
<g>
</g>
<g>
</g>
<g>
</g>
<g>
</g>
<g>
</g>
<g>
</g>
<g>
</g>
<g>
</g>
<g>
</g>
<g>
</g>
<g>
</g>
</svg>
